# File created by Blade
# Date/Time:  Wed Jan 21 14:37:15 2015
# Frame Rate: 120.000 fps
#------------------------------------------------------
:FULLY-SPECIFIED
:DEGREES
473
root 18.587726 35.550294 -21.908825 -173.556105 -1.097162 -178.482343
Spine -20.346182 -9.376839 3.986291
Head 5.112895 8.452403 -1.035916
LeftShoulder 57.914209 -73.480804 -21.644643
LeftArm 61.441511 47.196109 -80.017433
LeftForeArm 30.466338 0.000000 45.315458
LeftHand -0.898712 -0.000000 -3.714310
LeftHandThumb1 -26.253704 0.000000 33.147579
RightShoulder 14.245936 2.092449 2.260106
RightArm 47.687493 -18.761210 58.890920
RightForeArm 38.744273 0.000000 125.597022
RightHand 6.306216 -0.000000 -1.047769
RightHandThumb1 -24.326973 -0.000000 -32.862282
LeftUpLeg 1.377508 13.553989 1.688596
LeftLeg -6.304393 -0.000000 0.000000
LeftFoot -20.157662 29.274265 -12.248178
LeftToeBase 26.646300 -0.000000 -0.000000
RightUpLeg 0.478244 -9.162649 1.304120
RightLeg -3.629954 -0.000000 0.000000
RightFoot -19.942675 -25.217181 14.580701
RightToeBase 23.538415 -0.000000 -0.000000
474
root 18.591326 35.547178 -21.918139 -173.516087 -1.155209 -178.469142
Spine -20.414660 -9.571138 4.012442
Head 5.127038 8.495801 -0.941012
LeftShoulder 59.287721 -73.712664 -22.726526
LeftArm 60.864783 47.140262 -80.998230
LeftForeArm 30.314313 -0.000000 45.924605
LeftHand -0.968498 -0.000000 -3.509045
LeftHandThumb1 -26.253704 0.000000 33.147579
RightShoulder 14.058347 2.097881 2.502096
RightArm 47.642515 -18.640773 58.803351
RightForeArm 38.647283 -0.000000 126.008663
RightHand 6.416816 -0.000000 -1.188113
RightHandThumb1 -24.326973 -0.000000 -32.862282
LeftUpLeg 1.349466 13.513749 1.705967
LeftLeg -6.316386 -0.000000 0.000000
LeftFoot -20.163140 29.268287 -12.203444
LeftToeBase 26.650500 -0.000000 -0.000000
RightUpLeg 0.462215 -9.172012 1.331256
RightLeg -3.633011 -0.000000 0.000000
RightFoot -19.977223 -25.263716 14.547153
RightToeBase 23.615325 -0.000000 -0.000000
475
root 18.595956 35.544076 -21.927819 -173.482684 -1.222222 -178.448335
Spine -20.476113 -9.766402 4.039216
Head 5.144910 8.496655 -0.837128
LeftShoulder 60.937601 -73.931709 -24.043916
LeftArm 60.193597 47.040561 -81.991732
LeftForeArm 30.296561 -0.000000 46.656294
LeftHand -0.919799 -0.000000 -3.428791
LeftHandThumb1 -26.253704 0.000000 33.147579
RightShoulder 13.884409 2.072419 2.711910
RightArm 47.582369 -18.488106 58.752447
RightForeArm 38.412636 -0.000000 126.469897
RightHand 6.193892 -0.000000 -1.347185
RightHandThumb1 -24.326973 -0.000000 -32.862282
LeftUpLeg 1.322230 13.467164 1.734734
LeftLeg -6.317965 -0.000000 0.000000
LeftFoot -20.174734 29.266330 -12.140866
LeftToeBase 26.714095 -0.000000 -0.000000
RightUpLeg 0.477807 -9.130880 1.366364
RightLeg -3.683669 -0.000000 0.000000
RightFoot -20.000189 -25.349346 14.582097
RightToeBase 23.635924 -0.000000 -0.000000
476
root 18.599617 35.540556 -21.938962 -173.460298 -1.289440 -178.428425
Spine -20.529122 -9.979297 4.078965
Head 5.171330 8.515549 -0.761992
LeftShoulder 62.904535 -74.215359 -25.626629
LeftArm 59.327552 46.893955 -83.077473
LeftForeArm 30.188969 -0.000000 47.555471
LeftHand -1.118534 -0.000000 -3.660802
LeftHandThumb1 -26.253704 0.000000 33.147579
RightShoulder 13.719869 2.193042 2.942209
RightArm 47.413361 -18.433911 58.670076
RightForeArm 38.187691 -0.000000 126.865217
RightHand 6.212046 -0.000000 -1.628295
RightHandThumb1 -24.326973 -0.000000 -32.862282
LeftUpLeg 1.313593 13.432281 1.763743
LeftLeg -6.333504 -0.000000 0.000000
LeftFoot -20.185409 29.262253 -12.084622
LeftToeBase 26.753802 -0.000000 -0.000000
RightUpLeg 0.485829 -9.186508 1.400715
RightLeg -3.695885 -0.000000 0.000000
RightFoot -20.028591 -25.362809 14.568624
RightToeBase 23.616736 -0.000000 -0.000000
477
root 18.602848 35.537986 -21.951624 -173.432849 -1.356506 -178.402583
Spine -20.581213 -10.091102 4.074661
Head 5.198698 8.485155 -0.612080
LeftShoulder 64.764386 -74.402874 -27.067539
LeftArm 58.599160 46.761078 -84.203766
LeftForeArm 30.418719 -0.000000 48.342037
LeftHand -1.262838 -0.000000 -3.604013
LeftHandThumb1 -26.253704 0.000000 33.147579
RightShoulder 13.397560 2.163013 3.146679
RightArm 47.388071 -18.284008 58.545255
RightForeArm 37.929051 -0.000000 127.278916
RightHand 6.064344 0.000000 -1.836750
RightHandThumb1 -24.326973 -0.000000 -32.862282
LeftUpLeg 1.304998 13.388969 1.798397
LeftLeg -6.349941 -0.000000 0.000000
LeftFoot -20.186177 29.263510 -12.022511
LeftToeBase 26.771402 -0.000000 -0.000000
RightUpLeg 0.485243 -9.239565 1.438440
RightLeg -3.696286 -0.000000 0.000000
RightFoot -20.052393 -25.331466 14.658914
RightToeBase 23.532601 -0.000000 -0.000000
478
root 18.606587 35.535641 -21.962050 -173.406898 -1.419792 -178.378500
Spine -20.636505 -10.266160 4.102751
Head 5.244094 8.514700 -0.470014
LeftShoulder 67.049901 -74.627327 -28.952908
LeftArm 57.869939 46.680315 -85.049272
LeftForeArm 30.706042 -0.000000 49.269982
LeftHand -1.427518 -0.000000 -3.580299
LeftHandThumb1 -26.253704 0.000000 33.147579
RightShoulder 13.202760 2.043870 3.313763
RightArm 47.412520 -18.079821 58.439904
RightForeArm 37.741487 -0.000000 127.704420
RightHand 5.965006 -0.000000 -2.065539
RightHandThumb1 -24.326973 -0.000000 -32.862282
LeftUpLeg 1.292339 13.332468 1.831615
LeftLeg -6.363244 -0.000000 0.000000
LeftFoot -20.206889 29.278121 -11.981925
LeftToeBase 26.807774 -0.000000 -0.000000
RightUpLeg 0.482803 -9.266913 1.478870
RightLeg -3.694670 -0.000000 0.000000
RightFoot -20.089550 -25.387437 14.606026
RightToeBase 23.592603 -0.000000 -0.000000
479
root 18.609034 35.533189 -21.972438 -173.382258 -1.456623 -178.362874
Spine -20.702523 -10.506373 4.158181
Head 5.315341 8.628171 -0.353345
LeftShoulder 69.144784 -74.858830 -30.665725
LeftArm 57.135414 46.588543 -85.922931
LeftForeArm 31.056936 -0.000000 50.143722
LeftHand -1.527674 -0.000000 -3.710195
LeftHandThumb1 -26.253704 0.000000 33.147579
RightShoulder 13.114897 1.975793 3.490622
RightArm 47.386541 -17.925713 58.330885
RightForeArm 37.636652 -0.000000 128.135253
RightHand 5.783051 0.000000 -2.496663
RightHandThumb1 -24.326973 -0.000000 -32.862282
LeftUpLeg 1.287086 13.322459 1.852636
LeftLeg -6.382519 -0.000000 0.000000
LeftFoot -20.208893 29.266605 -11.947258
LeftToeBase 26.693819 -0.000000 -0.000000
RightUpLeg 0.478156 -9.298178 1.500775
RightLeg -3.693446 -0.000000 0.000000
RightFoot -20.100882 -25.344112 14.675663
RightToeBase 23.477646 -0.000000 -0.000000
480
root 18.611716 35.531438 -21.981681 -173.345996 -1.489378 -178.359206
Spine -20.777656 -10.757962 4.179822
Head 5.384856 8.749650 -0.146314
LeftShoulder 71.732021 -75.105594 -32.757952
LeftArm 55.844980 46.327573 -87.316136
LeftForeArm 31.782935 -0.000000 51.234327
LeftHand -1.621666 -0.000000 -4.163078
LeftHandThumb1 -26.253704 0.000000 33.147579
RightShoulder 12.941476 1.921470 3.724259
RightArm 47.448975 -17.821721 58.140531
RightForeArm 37.612925 0.000000 128.465074
RightHand 5.607564 -0.000000 -2.784947
RightHandThumb1 -24.326973 -0.000000 -32.862282
LeftUpLeg 1.281353 13.241706 1.860436
LeftLeg -6.419888 -0.000000 0.000000
LeftFoot -20.205298 29.311490 -11.934739
LeftToeBase 26.831574 -0.000000 -0.000000
RightUpLeg 0.451320 -9.305416 1.515712
RightLeg -3.673877 -0.000000 0.000000
RightFoot -20.146307 -25.390479 14.619096
RightToeBase 23.643016 -0.000000 -0.000000
481
root 18.614960 35.529506 -21.991540 -173.328882 -1.523659 -178.351065
Spine -20.838524 -11.031627 4.228256
Head 5.489380 8.902470 0.029286
LeftShoulder 73.425523 -75.252599 -34.055010
LeftArm 55.382767 46.236095 -87.895498
LeftForeArm 32.188963 -0.000000 52.150220
LeftHand -1.817850 0.000000 -4.299692
LeftHandThumb1 -26.253704 0.000000 33.147579
RightShoulder 12.941771 1.929707 3.892696
RightArm 47.333763 -17.685307 58.088246
RightForeArm 37.583645 0.000000 128.864058
RightHand 5.616311 0.000000 -3.122780
RightHandThumb1 -24.326973 -0.000000 -32.862282
LeftUpLeg 1.281004 13.208650 1.876651
LeftLeg -6.430796 -0.000000 0.000000
LeftFoot -20.216630 29.317611 -11.916290
LeftToeBase 26.885303 -0.000000 -0.000000
RightUpLeg 0.452820 -9.317958 1.535614
RightLeg -3.672733 -0.000000 0.000000
RightFoot -20.178776 -25.410905 14.605132
RightToeBase 23.611880 -0.000000 -0.000000
482
root 18.618797 35.528673 -22.001651 -173.317259 -1.567058 -178.331098
Spine -20.895168 -11.323554 4.297339
Head 5.596070 9.038980 0.219661
LeftShoulder 75.568399 -75.429913 -35.794214
LeftArm 54.584610 46.085018 -88.784861
LeftForeArm 32.781663 -0.000000 53.099345
LeftHand -1.845236 -0.000000 -4.605158
LeftHandThumb1 -26.253704 0.000000 33.147579
RightShoulder 12.916055 1.894389 4.075505
RightArm 47.317225 -17.557593 58.021173
RightForeArm 37.610735 -0.000000 129.235091
RightHand 5.464482 -0.000000 -3.420152
RightHandThumb1 -24.326973 -0.000000 -32.862282
LeftUpLeg 1.261807 13.231294 1.906115
LeftLeg -6.400455 -0.000000 0.000000
LeftFoot -20.229735 29.257918 -11.881159
LeftToeBase 26.861289 -0.000000 -0.000000
RightUpLeg 0.455627 -9.357781 1.568002
RightLeg -3.666502 -0.000000 0.000000
RightFoot -20.180861 -25.413247 14.623810
RightToeBase 23.601837 -0.000000 -0.000000
483
root 18.621168 35.528087 -22.011169 -173.302197 -1.606402 -178.318323
Spine -20.953919 -11.589735 4.361625
Head 5.720573 9.190533 0.383710
LeftShoulder 77.224645 -75.526727 -37.100669
LeftArm 54.113619 45.984445 -89.378627
LeftForeArm 33.466057 -0.000000 54.010050
LeftHand -1.776799 0.000000 -5.172368
LeftHandThumb1 -26.253704 0.000000 33.147579
RightShoulder 12.865215 1.885261 4.236793
RightArm 47.296867 -17.455254 57.967748
RightForeArm 37.599654 -0.000000 129.591978
RightHand 5.190639 -0.000000 -3.719712
RightHandThumb1 -24.326973 -0.000000 -32.862282
LeftUpLeg 1.251343 13.189155 1.927498
LeftLeg -6.388946 -0.000000 0.000000
LeftFoot -20.247639 29.264600 -11.878169
LeftToeBase 26.861298 -0.000000 -0.000000
RightUpLeg 0.453506 -9.379636 1.589708
RightLeg -3.654003 -0.000000 0.000000
RightFoot -20.214383 -25.429182 14.650867
RightToeBase 23.620878 -0.000000 -0.000000
